#define ark_width 20
#define ark_height 20
static unsigned char ark_bits[] = {
   0xff, 0xff, 0x0f, 0xff, 0xff, 0x0f, 0xff, 0xf9, 0x0f, 0xff, 0xf9, 0x0f,
   0xff, 0xf0, 0x0f, 0xff, 0xf0, 0x0f, 0xff, 0xf0, 0x0f, 0x7f, 0xe0, 0x0f,
   0x3f, 0xe0, 0x0f, 0x3f, 0xc0, 0x0f, 0x3f, 0xc0, 0x0f, 0x1f, 0x80, 0x0f,
   0x1f, 0x87, 0x0f, 0x0f, 0x0f, 0x0f, 0x0f, 0x8f, 0x0f, 0x07, 0x0f, 0x0e,
   0xc7, 0x3f, 0x0e, 0xf3, 0xff, 0x0c, 0xfd, 0xff, 0x0f, 0xff, 0xff, 0x0f };
